<?xml version="1.0" encoding="utf-8"?>
<!-- Generator: Adobe Illustrator 23.0.3, SVG Export Plug-In . SVG Version: 6.00 Build 0)  -->
<svg version="1.1" id="Layer_1" xmlns="http://www.w3.org/2000/svg" xmlns:xlink="http://www.w3.org/1999/xlink" x="0px" y="0px"
	 viewBox="0 0 423 158.9" style="enable-background:new 0 0 423 158.9;" xml:space="preserve">
<style type="text/css">
	.st0{fill:#961A31;}
</style>
<symbol  id="New_Symbol" viewBox="-128.2 -39.9 257.3 76.5">
	<g>
		<path d="M-96-8.9c-0.8-0.3-1.7-0.6-2.8-0.8c-1.1-0.3-2.3-0.6-3.5-0.8c-1.2-0.3-2.5-0.5-3.8-0.6c-1.3-0.1-2.6-0.2-3.9-0.2
			c-2.4,0-4.7,0.2-6.9,0.6c-2.2,0.4-4.1,1.1-5.8,2.3c-1.7,1.1-3,2.8-4,5c-1,2.2-1.5,5.1-1.5,8.8v20.5c1,0.2,2.1,0.4,3.1,0.5
			c1,0.1,2,0.1,2.9,0.1c0.9,0,1.9,0,2.9-0.1c1-0.1,2-0.3,3-0.5V6.2c0-2.8,0.5-4.7,1.4-5.8c0.9-1,2.4-1.5,4.3-1.5
			c0.8,0,1.4,0,1.8,0.1c0.4,0,0.7,0.1,0.9,0.1v26.6c1,0.2,2,0.4,3.1,0.5c1,0.1,2,0.1,2.9,0.1c0.9,0,1.9,0,2.9-0.1c1-0.1,2-0.3,3-0.5
			V-8.9z"/>
		<path d="M-73.4,26.5c2.1,0,4.1-0.2,6.2-0.5c2.1-0.4,3.9-1.1,5.6-2.2c1.7-1.1,3-2.7,4.1-4.9c1.1-2.1,1.6-4.9,1.6-8.4v-21
			c-1.2-0.2-2.3-0.4-3.3-0.5c-1-0.1-1.9-0.1-2.6-0.1c-0.8,0-1.7,0-2.7,0.1c-1,0.1-2.1,0.2-3.3,0.5V9.2c0,2.5-0.5,4.3-1.4,5.3
			c-0.9,1.1-2.4,1.6-4.3,1.6c-0.5,0-1.1,0-1.7-0.1c-0.6-0.1-0.9-0.2-1.1-0.3v-26.3c-1.2-0.2-2.3-0.4-3.3-0.5c-1-0.1-1.9-0.1-2.6-0.1
			c-0.8,0-1.7,0-2.7,0.1c-1,0.1-2.1,0.2-3.3,0.5V24c1.6,0.6,3.6,1.1,6,1.7C-79.8,26.2-76.9,26.5-73.4,26.5z"/>
		<path d="M-36.5-10.5c-1.2-0.2-2.3-0.3-3.3-0.4c-1-0.1-1.9-0.1-2.7-0.1c-0.8,0-1.7,0-2.7,0.1s-2.1,0.2-3.2,0.4v36.3
			c1,0.2,2,0.4,3.1,0.5c1,0.1,2,0.1,2.9,0.1c0.9,0,1.9,0,2.9-0.1c1-0.1,2-0.3,3-0.5V-10.5z"/>
	</g>
	<g>
		<path d="M25.6,25.7c2.2,0.3,4.4,0.6,6.6,0.7c2.3,0.2,4.5,0.2,6.6,0.2c2.2,0,4.3-0.2,6.3-0.6c2.1-0.4,3.9-1.1,5.6-2.2
			c1.6-1.1,3-2.5,4-4.4c1-1.9,1.5-4.3,1.5-7.2c0-2.7-0.5-4.9-1.4-6.7c-0.9-1.8-2.1-3.3-3.6-4.4C49.7,0,48-0.8,46.1-1.3
			C44.2-1.8,42.3-2,40.3-2c-0.8,0-1.5,0-2,0.1c-0.6,0-0.9,0.1-1.1,0.1v-8.6c-1.2-0.2-2.3-0.4-3.3-0.5C33-11,32.1-11,31.4-11
			c-0.8,0-1.7,0-2.6,0.1c-0.9,0.1-2,0.2-3.2,0.5V25.7z M37.2,7c0.2,0,0.5-0.1,0.9-0.1c0.4,0,0.6,0,0.9,0c1.6,0,3,0.4,4,1.2
			c1.1,0.8,1.6,2.2,1.6,4.2c0,1.7-0.5,3-1.6,3.9c-1.1,0.9-2.4,1.4-3.9,1.4c-0.2,0-0.5,0-0.8,0c-0.4,0-0.7,0-1.1-0.1V7z"/>
		<path d="M60.1,7.5c0,2.9,0.4,5.5,1.2,7.8c0.8,2.4,1.9,4.4,3.4,6.1c1.5,1.7,3.4,3,5.7,3.9c2.2,0.9,4.9,1.4,7.8,1.4
			c3,0,5.6-0.5,7.9-1.4c2.2-0.9,4.1-2.2,5.7-3.9c1.5-1.7,2.7-3.7,3.4-6.1c0.8-2.4,1.2-5,1.2-7.8c0-2.8-0.4-5.4-1.2-7.7
			c-0.8-2.3-1.9-4.3-3.4-6c-1.5-1.7-3.4-2.9-5.7-3.8s-4.9-1.3-7.9-1.3c-3,0-5.6,0.4-7.8,1.3s-4.1,2.2-5.7,3.8
			c-1.5,1.7-2.7,3.7-3.4,6C60.5,2.1,60.1,4.6,60.1,7.5z M84.3,7.5c0,3-0.5,5.3-1.5,6.9c-1,1.6-2.5,2.4-4.6,2.4
			c-2.1,0-3.6-0.8-4.6-2.4c-1-1.6-1.5-3.9-1.5-6.9c0-3,0.5-5.2,1.5-6.8c1-1.6,2.5-2.4,4.6-2.4c2.1,0,3.6,0.8,4.6,2.4
			C83.8,2.2,84.3,4.5,84.3,7.5z"/>
		<path d="M114.3-0.6h13.3c0.2-0.9,0.4-1.8,0.5-2.6c0.1-0.8,0.1-1.6,0.1-2.3s0-1.5-0.1-2.4c-0.1-0.8-0.2-1.7-0.5-2.6h-25.2l0.1,36.3
			c1,0.2,2,0.4,3.1,0.5c1,0.1,2,0.1,2.9,0.1c0.9,0,1.9,0,2.9-0.1c1-0.1,2-0.3,3-0.5L114.3-0.6z"/>
	</g>
	<text transform="matrix(1 0 0 -1 43.291 -30.7651)" style="font-family:'Hind-Bold'; font-size:17.5888px;">since 1996</text>
	<path d="M-29.8,11.1c0,3.7,0.4,7,1.3,10.2c0.8,3.1,2.1,5.8,3.9,8.1c1.8,2.3,4,4.1,6.7,5.4c2.7,1.3,5.9,2,9.7,2c3.7,0,7-0.7,9.6-2
		c2.7-1.3,4.9-3.1,6.7-5.4c1.8-2.3,3.1-5,3.9-8.1c0.8-3.1,1.3-6.5,1.3-10.2c0-3.7-0.4-7-1.3-10.1c-0.8-3.1-2.1-5.7-3.9-8
		c-1.8-2.3-4-4-6.7-5.3c-2.7-1.3-5.9-1.9-9.6-1.9c-3.7,0-7,0.6-9.7,1.9c-2.7,1.3-5,3-6.7,5.3c-1.8,2.3-3.1,4.9-3.9,8
		C-29.4,4.1-29.8,7.4-29.8,11.1z M0.5,11.1C0.5,21-2.4,26-8.2,26c-5.9,0-8.9-5-8.9-14.9c0-5,0.7-8.7,2.2-11.1
		c1.4-2.4,3.7-3.7,6.7-3.7C-2.4-3.7,0.5,1.2,0.5,11.1z M-9.2-28.5c0,0.9,0,1.6,0,2s0,0.7,0.1,1.1c0.2,2.2,0.9,4.6,1.9,7l22.7-3.7
		c0-1.7-0.2-3.4-0.5-5.1c-0.3-1.7-0.7-3.4-1.3-5.1L-9.2-28.5z"/>
	<path class="st0" d="M-24,11.1c0,3.7,0.4,7,1.3,10.2c0.8,3.1,2.1,5.8,3.9,8.1c1.8,2.3,4,4.1,6.7,5.4c2.7,1.3,5.9,2,9.7,2
		c3.7,0,7-0.7,9.6-2c2.7-1.3,4.9-3.1,6.7-5.4c1.8-2.3,3.1-5,3.9-8.1c0.8-3.1,1.3-6.5,1.3-10.2s-0.4-7-1.3-10.1
		c-0.8-3.1-2.1-5.7-3.9-8c-1.8-2.3-4-4-6.7-5.3c-2.7-1.3-5.9-1.9-9.6-1.9c-3.7,0-7,0.6-9.7,1.9c-2.7,1.3-5,3-6.7,5.3
		c-1.8,2.3-3.1,4.9-3.9,8C-23.6,4.1-24,7.4-24,11.1z M6.3,11.1C6.3,21,3.4,26-2.4,26c-5.9,0-8.9-5-8.9-14.9c0-5,0.7-8.7,2.2-11.1
		c1.4-2.4,3.7-3.7,6.7-3.7C3.4-3.7,6.3,1.2,6.3,11.1z M-5.1-26.9c0,0.9,0,1.6,0,2c0,0.4,0,0.7,0.1,1.1c0.2,2.2,0.9,4.6,1.9,7
		l22.7-3.7c0-1.7-0.2-3.4-0.5-5.1c-0.3-1.7-0.7-3.4-1.3-5.1L-5.1-26.9z"/>
</symbol>
<use xlink:href="#New_Symbol"  width="257.3" height="76.5" id="XMLID_4_" x="-128.2" y="-39.9" transform="matrix(1 0 0 -1 208.3414 78.3123)" style="overflow:visible;"/>
</svg>
